HIERARCHY
ROOT Hips
{
	OFFSET 0 0 0
	CHANNELS 6 Xposition Yposition Zposition Yrotation Xrotation Zrotation
	JOINT Spine
	{
		OFFSET -0 8.44927 -2.6932
		CHANNELS 3 Yrotation Xrotation Zrotation
		JOINT Spine1
		{
			OFFSET -0 9.25792 0
			CHANNELS 3 Yrotation Xrotation Zrotation
			JOINT Spine2
			{
				OFFSET -0 9.25792 0
				CHANNELS 3 Yrotation Xrotation Zrotation
				JOINT Spine3
				{
					OFFSET -0 9.25792 0
					CHANNELS 3 Yrotation Xrotation Zrotation
					JOINT Neck
					{
						OFFSET -0 8.27543 3.6932
						CHANNELS 3 Yrotation Xrotation Zrotation
						JOINT Head
						{
							OFFSET -0 10.5616 0
							CHANNELS 3 Yrotation Xrotation Zrotation
							End Site
							{
								OFFSET 0 15 0
							}
						}
					}
					JOINT LeftShoulder
					{
						OFFSET 1.76026 -0.446652 3.52053
						CHANNELS 3 Yrotation Xrotation Zrotation
						JOINT LeftArm
						{
							OFFSET 15.3604 0 0
							CHANNELS 3 Yrotation Xrotation Zrotation
							JOINT LeftForeArm
							{
								OFFSET 29.3264 0 0
								CHANNELS 3 Yrotation Xrotation Zrotation
								JOINT LeftHand
								{
									OFFSET 24.1271 0 0
									CHANNELS 3 Yrotation Xrotation Zrotation
									End Site
									{
										OFFSET 15 0 0
									}
								}
							}
						}
					}
					JOINT RightShoulder
					{
						OFFSET -1.76026 -0.446652 3.52053
						CHANNELS 3 Yrotation Xrotation Zrotation
						JOINT RightArm
						{
							OFFSET -15.3604 0 0
							CHANNELS 3 Yrotation Xrotation Zrotation
							JOINT RightForeArm
							{
								OFFSET -29.3264 0 0
								CHANNELS 3 Yrotation Xrotation Zrotation
								JOINT RightHand
								{
									OFFSET -24.1271 0 0
									CHANNELS 3 Yrotation Xrotation Zrotation
									End Site
									{
										OFFSET -15 0 0
									}
								}
							}
						}
					}
				}
			}
		}
	}
	JOINT LeftUpLeg
	{
		OFFSET 10.5616 -3.52053 0
		CHANNELS 3 Yrotation Xrotation Zrotation
		JOINT LeftLeg
		{
			OFFSET -0 -43.1823 2.46437
			CHANNELS 3 Yrotation Xrotation Zrotation
			JOINT LeftFoot
			{
				OFFSET -0 -38.2901 -2.46437
				CHANNELS 3 Yrotation Xrotation Zrotation
				JOINT LeftToeBase
				{
					OFFSET -0 -9.36021 14.7518
					CHANNELS 3 Yrotation Xrotation Zrotation
					End Site
					{
						OFFSET 0 0 5
					}
				}
			}
		}
	}
	JOINT RightUpLeg
	{
		OFFSET -10.5616 -3.52053 0
		CHANNELS 3 Yrotation Xrotation Zrotation
		JOINT RightLeg
		{
			OFFSET -0 -43.1823 2.46437
			CHANNELS 3 Yrotation Xrotation Zrotation
			JOINT RightFoot
			{
				OFFSET -0 -38.2901 -2.46437
				CHANNELS 3 Yrotation Xrotation Zrotation
				JOINT RightToeBase
				{
					OFFSET -0 -9.36021 14.7518
					CHANNELS 3 Yrotation Xrotation Zrotation
					End Site
					{
						OFFSET 0 0 5
					}
				}
			}
		}
	}
}
MOTION
Frames: 12
Frame Time: 0.00833333
52.262854 82.856354 -51.574176 -96.706670 9.832534 1.181196 3.010360 4.365642 -1.295341 1.351081 3.338465 -0.958056 1.221334 2.173729 -0.605778 0.106503 0.461951 0.104201 0.195203 -7.392520 -1.588012 -0.164838 -4.640659 1.343390 -9.443748 -5.327649 19.215476 -58.641009 -16.022321 20.164180 -30.347110 -18.184688 17.528765 18.278353 -47.077082 -38.642933 14.855494 -7.525182 -21.857198 57.459177 -13.484445 -19.251044 31.406557 -10.066680 -17.763758 3.068436 -30.882418 15.869691 2.082378 -56.301145 -1.717384 0.000000 36.820730 0.000000 -5.713088 16.537721 0.967976 0.000000 -3.707037 0.000000 -3.298235 -11.491834 -13.294183 0.000000 64.070559 0.000000 3.020984 -10.797094 -0.451100 0.000000 -24.109804 0.000000
52.010712 82.922491 -51.646198 -96.639342 9.975967 1.112261 3.024071 4.289003 -1.386327 1.528448 3.341603 -0.929819 1.282529 2.053419 -0.571207 0.225593 0.470724 0.169743 0.091835 -7.361860 -1.460930 -0.154590 -4.466191 0.941491 -9.539997 -5.318101 19.179400 -58.754434 -15.788937 20.199467 -30.786063 -17.362686 17.396686 18.032785 -46.539861 -38.255469 15.034870 -7.507874 -21.882604 56.937096 -13.705081 -18.930267 31.341914 -10.239733 -17.824995 2.925484 -30.708180 16.195687 1.572531 -56.353316 -1.319757 0.000000 37.009034 0.000000 -5.512630 16.167784 0.857596 0.000000 -3.808366 0.000000 -3.683350 -11.111766 -13.147345 0.000000 63.386613 0.000000 2.998854 -11.008550 -0.572041 0.000000 -24.026888 0.000000
51.777533 82.985956 -51.716187 -96.558305 10.171573 1.019835 3.093926 4.260984 -1.420764 1.717400 3.269831 -0.901605 1.294679 1.970215 -0.548682 0.266500 0.468678 0.127540 0.055094 -7.601626 -1.417095 -0.151116 -4.076325 0.826737 -9.522213 -5.217185 19.184995 -58.966422 -15.582301 20.421928 -31.253050 -16.567723 17.341123 17.614156 -45.888368 -37.737146 15.275417 -7.512398 -21.847111 56.110706 -13.819878 -18.587025 31.756189 -10.113548 -18.051504 2.828255 -30.725524 16.672019 1.029163 -56.450716 -0.877706 0.000000 37.161131 0.000000 -5.360845 15.797359 0.718852 0.000000 -4.023294 0.000000 -4.132368 -10.858759 -12.950108 0.000000 62.735215 0.000000 2.913977 -11.121530 -0.815098 0.000000 -24.161846 0.000000
51.566626 83.047986 -51.787878 -96.489699 10.404341 0.925108 3.186230 4.159444 -1.466638 1.927088 3.243445 -0.874716 1.251550 1.849888 -0.492565 0.196928 0.615244 0.064393 -0.009672 -7.535268 -1.333171 -0.166810 -4.453381 0.701049 -9.535395 -5.244505 19.280654 -59.047538 -15.419977 20.551734 -31.699407 -15.883808 17.402743 17.334822 -45.164815 -37.314873 15.445177 -7.593613 -21.920580 55.624455 -14.086203 -18.289433 32.217944 -10.112899 -18.286962 2.454985 -30.322731 17.186937 0.453583 -56.582079 -0.398139 0.000000 37.299576 0.000000 -5.231580 15.416864 0.575100 0.000000 -4.104934 0.000000 -4.586356 -10.714559 -12.707190 0.000000 62.182624 0.000000 2.625615 -11.129058 -1.049364 0.000000 -24.236816 0.000000
51.386584 83.112360 -51.851801 -96.434401 10.662318 0.916218 3.265827 4.017159 -1.512880 2.045087 3.199337 -0.935094 1.187953 1.782771 -0.503610 0.190277 0.843085 0.066919 0.024513 -7.517503 -1.442276 -0.176616 -4.862328 0.792331 -9.611881 -5.340335 19.383539 -59.105536 -15.318208 20.773523 -32.128156 -15.515513 17.412316 17.622450 -44.513322 -36.866188 15.804716 -7.692799 -21.895078 54.906185 -14.060070 -18.129473 32.757172 -9.774205 -18.565876 2.277893 -30.151607 17.561339 0.103618 -56.714781 -0.142090 0.000000 37.347996 0.000000 -5.133240 15.140902 0.494965 0.000000 -4.146657 0.000000 -4.947954 -10.675218 -12.567881 0.000000 61.693894 0.000000 2.369844 -11.045419 -1.246249 0.000000 -24.576632 0.000000
51.217029 83.167828 -51.922058 -96.322283 10.866558 0.926027 3.283683 3.896256 -1.556923 2.077057 3.235244 -1.008649 1.134816 1.694849 -0.571427 0.205690 1.021898 0.047461 0.041752 -7.431987 -1.462340 -0.190561 -5.335514 0.898245 -9.712479 -5.399815 19.565352 -59.093783 -15.160785 21.007486 -32.371206 -15.325608 17.446872 17.383679 -43.867832 -36.342936 15.885151 -7.637265 -21.854379 54.612392 -14.193757 -18.141961 33.095091 -9.520033 -18.839943 2.299337 -29.853640 17.911814 -0.244342 -56.813809 0.075898 0.000000 37.403203 0.000000 -5.066528 14.909544 0.399694 0.000000 -4.181804 0.000000 -5.376070 -10.597428 -12.420758 0.000000 61.283768 0.000000 2.029901 -11.035640 -1.460072 0.000000 -24.677122 0.000000
51.082642 83.222125 -52.007123 -96.249272 11.149076 0.864134 3.308489 3.843610 -1.602588 2.132570 3.021726 -1.032429 1.126490 1.701177 -0.534853 0.171937 1.315587 0.001211 0.006338 -7.624951 -1.488606 -0.214321 -5.597798 0.885188 -9.845798 -5.537041 19.726329 -59.092718 -15.154039 21.263537 -32.510328 -15.182097 17.464159 17.153801 -43.279628 -35.699676 16.072476 -7.682768 -21.944060 54.122983 -14.153171 -18.163403 33.464443 -9.189272 -19.007023 2.069902 -29.937111 18.134746 -0.428168 -57.017798 0.271790 0.000000 37.442810 0.000000 -5.104557 14.771678 0.400629 0.000000 -4.238073 0.000000 -5.602402 -10.636232 -12.172373 0.000000 60.905011 0.000000 1.675954 -10.895314 -1.463287 0.000000 -25.064467 0.000000
50.958093 83.280908 -52.073077 -96.170826 11.345306 0.910752 3.209035 3.773545 -1.724872 2.129062 3.031949 -1.081390 1.114428 1.718733 -0.528806 0.185879 1.337547 0.010762 0.041934 -7.859329 -1.640418 -0.225477 -5.510689 1.000741 -9.863180 -5.544446 19.814750 -59.197812 -15.255727 21.576974 -32.470525 -15.128978 17.415378 16.773291 -42.695867 -35.189001 16.301639 -7.605768 -21.994316 53.847948 -13.973616 -18.280387 33.592305 -9.047365 -19.201167 1.777957 -29.777421 18.500384 -0.311856 -57.110973 0.135482 0.000000 37.418969 0.000000 -5.149576 14.702867 0.546288 0.000000 -4.222245 0.000000 -5.767786 -10.582153 -12.072354 0.000000 60.524442 0.000000 1.353576 -10.801123 -1.412234 0.000000 -25.439287 0.000000
50.846951 83.337878 -52.142719 -96.109812 11.571289 0.952324 3.136064 3.647029 -1.808288 2.100063 3.014039 -1.148600 1.063313 1.876782 -0.579461 0.261246 1.352181 0.095329 0.109159 -7.896846 -1.757997 -0.211326 -5.817387 0.983249 -9.889324 -5.559376 19.880187 -59.245197 -15.370170 21.963710 -32.500711 -15.122517 17.415364 16.774896 -42.095021 -34.863853 16.467241 -7.589906 -22.167142 53.691692 -13.866560 -18.393831 33.562554 -8.955341 -19.272512 1.715608 -29.538024 18.575243 -0.101433 -57.248840 -0.046378 0.000000 37.400116 0.000000 -5.229055 14.673660 0.683750 0.000000 -4.261045 0.000000 -5.808328 -10.551699 -11.963966 0.000000 60.170279 0.000000 1.083282 -10.778157 -1.315590 0.000000 -25.661389 0.000000
50.727246 83.391443 -52.198163 -96.019131 11.762444 1.059719 3.013614 3.646121 -1.893236 1.987300 2.948484 -1.235139 1.029135 1.912711 -0.648351 0.346885 1.404001 0.155547 0.222549 -7.811308 -1.987983 -0.202802 -6.305727 1.071732 -9.925089 -5.643172 19.933081 -59.169079 -15.462918 22.210226 -32.577791 -15.028699 17.427645 16.432515 -41.534360 -34.298708 16.538150 -7.539548 -22.335869 53.759321 -13.667804 -18.576423 33.329904 -8.924704 -19.326012 1.628494 -29.233312 18.768120 0.324265 -57.341322 -0.452471 0.000000 37.371692 0.000000 -5.376649 14.650165 0.838883 0.000000 -4.303276 0.000000 -5.748587 -10.476203 -11.978617 0.000000 59.829579 0.000000 0.940710 -10.689101 -1.025038 0.000000 -25.965354 0.000000
50.626569 83.441541 -52.254761 -95.925081 11.903658 1.121524 2.907082 3.645602 -1.937343 1.863664 2.966676 -1.308224 1.009284 2.007135 -0.712293 0.397086 1.327795 0.173501 0.373548 -8.243464 -2.048975 -0.120308 -5.755189 0.950896 -9.974432 -5.652041 20.063635 -59.127092 -15.709464 22.478978 -32.526021 -14.766557 17.385120 16.100974 -40.838380 -33.953103 16.697551 -7.559380 -22.460104 53.789217 -13.481552 -18.695843 33.086933 -8.928281 -19.334297 1.779171 -28.771210 18.789253 0.842978 -57.402252 -0.880651 0.000000 37.352030 0.000000 -5.605537 14.651277 0.993953 0.000000 -4.365506 0.000000 -5.549650 -10.314988 -11.941092 0.000000 59.469493 0.000000 0.805814 -10.632368 -0.577752 0.000000 -26.302331 0.000000
50.521762 83.477753 -52.302325 -95.838243 12.059582 1.221580 2.801072 3.651370 -1.986349 1.754815 2.957523 -1.376298 0.938787 2.062785 -0.816189 0.475366 1.252897 0.243851 0.530919 -8.165958 -2.106367 -0.035286 -5.963571 0.741174 -10.034184 -5.723248 20.147647 -59.016562 -15.884878 22.658649 -32.531585 -14.570740 17.368304 15.826184 -40.004469 -33.547034 16.752765 -7.487521 -22.618435 53.955762 -13.376741 -18.881624 32.855194 -8.892848 -19.307773 1.797215 -28.389518 18.825797 1.509757 -57.478554 -1.453746 0.000000 37.358138 0.000000 -5.826272 14.619788 1.216176 0.000000 -4.413776 0.000000 -5.233350 -10.146560 -11.939779 0.000000 59.127025 0.000000 0.645473 -10.599522 -0.074238 0.000000 -26.617401 0.000000
